<?xml version="1.0" encoding="UTF-8"?>
<svg version="1.1" xmlns="http://www.w3.org/2000/svg" width="685" height="768">
<path d="M0 0 C186.78 0 373.56 0 566 0 C565.11303038 4.43484809 563.8295837 8.31892139 562.17578125 12.48828125 C561.88248428 13.23744812 561.58918732 13.98661499 561.28700256 14.75848389 C560.29944273 17.27805561 559.30594625 19.795244 558.3125 22.3125 C557.59875235 24.12998219 556.88538395 25.94761335 556.17236328 27.76538086 C554.61713005 31.72799242 553.05927891 35.68956156 551.49951172 39.65039062 C548.93380137 46.16613561 546.37472423 52.68447464 543.81640625 59.203125 C539.64034023 69.84193369 535.46034903 80.4791949 531.27867126 91.11579895 C526.64009031 102.9147787 522.00433361 114.71486708 517.36895752 126.5151062 C515.07943019 132.34345331 512.78970488 138.17172264 510.5 144 C509.58333239 146.33333296 508.66666572 148.6666663 507.75 151 C502.25000001 164.99999996 502.25000001 164.99999996 500.87510681 168.49972534 C499.95808159 170.83397321 499.04105889 173.16822207 498.1240387 175.50247192 C495.83787855 181.32182092 493.55167519 187.14115294 491.26538086 192.96044922 C487.07461128 203.62732737 482.88421322 214.2943509 478.69534302 224.9619751 C461.33235968 269.17944621 461.33235968 269.17944621 452.62530518 291.21350098 C444.00420479 313.03243119 435.43761464 334.87281375 426.86279297 356.70996094 C422.69910008 367.31317597 418.53347558 377.91563211 414.36795044 388.51812744 C412.07855011 394.34538548 409.7892819 400.17269543 407.5 406 C406.58333396 408.33333358 405.6666673 410.66666691 404.75 413 C404.29625 414.155 403.8425 415.31 403.375 416.5 C377.25000007 482.99999983 377.25000007 482.99999983 375.87524414 486.49937439 C374.9577599 488.83479161 374.04027943 491.17021031 373.12280273 493.50563049 C370.84367588 499.30709253 368.56448521 505.10852948 366.28515625 510.90991211 C362.01065362 521.78964001 357.73678714 532.66961668 353.46508789 543.55044556 C351.70483429 548.03413045 349.94427026 552.51769343 348.18363953 557.00123024 C346.98723752 560.04799992 345.79106501 563.09485938 344.59521484 566.1418457 C343.27224281 569.5127027 341.94867817 572.88332649 340.625 576.25390625 C340.244646 577.2234877 339.86429199 578.19306915 339.47241211 579.19203186 C336.34917632 587.14226053 333.17252062 595.06869845 330 603 C299.31 603 268.62 603 237 603 C234.41728447 597.83456893 232.07333998 592.91452807 230.06640625 587.55078125 C229.50578856 586.07690028 228.94515972 584.60302355 228.38452148 583.12915039 C227.94231766 581.95958298 227.94231766 581.95958298 227.49118042 580.76638794 C225.84157222 576.40756485 224.1753053 572.05513212 222.5078125 567.703125 C222.14890427 566.76638443 221.78999603 565.82964386 221.42021179 564.86451721 C217.0148107 553.39544452 212.47510227 541.97975374 207.9375 530.5625 C206.13241997 526.01838499 204.32775321 521.47410605 202.5234375 516.9296875 C202.06898254 515.78513092 201.61452759 514.64057434 201.14630127 513.46133423 C196.08840814 500.71516201 191.07291636 487.95239469 186.0625 475.1875 C185.607612 474.02872345 185.152724 472.8699469 184.68405151 471.67605591 C182.37760766 465.80033275 180.07171425 459.92439379 177.76611328 454.04833984 C173.63866309 443.52994032 169.50613647 433.01353515 165.37399292 422.49697876 C163.08245405 416.66473418 160.79124365 410.83236056 158.5 405 C157.58333491 402.66666605 156.66666824 400.33333272 155.75 398 C146.58333333 374.66666667 137.41666667 351.33333333 128.25 328 C127.79628525 326.84509064 127.3425705 325.69018127 126.87510681 324.50027466 C125.95808159 322.16602679 125.04105889 319.83177793 124.1240387 317.49752808 C121.83787855 311.67817908 119.55167519 305.85884706 117.26538086 300.03955078 C113.07461128 289.37267263 108.88421322 278.7056491 104.69534302 268.0380249 C92.12068504 236.00995173 92.12068504 236.00995173 79.5 204 C70.58651359 181.44354908 61.72759128 158.86565788 52.86279297 136.29003906 C50.06674743 129.16965991 47.26985756 122.04961268 44.47265625 114.9296875 C44.01990829 113.77727066 43.56716034 112.62485382 43.10069275 111.43751526 C41.28151419 106.80707234 39.46229673 102.17664472 37.64303589 97.54623413 C32.91583992 85.51448375 28.18911538 73.48254922 23.46508789 61.44955444 C21.70483429 56.96586955 19.94427026 52.48230657 18.18363953 47.99876976 C16.98723752 44.95200008 15.79106501 41.90514062 14.59521484 38.8581543 C13.27224281 35.48729729 11.94869532 32.11666679 10.625 28.74609375 C10.21709229 27.70649506 9.80918457 26.66689636 9.38891602 25.59579468 C7.62646188 21.10987356 5.85636583 16.62782503 4.046875 12.16064453 C3.61640869 11.09669212 3.61640869 11.09669212 3.17724609 10.01124573 C2.44198751 8.20015962 1.70171261 6.39111212 0.9609375 4.58227539 C0 2 0 2 0 0 Z M113 74 C115.01837531 80.7279177 117.11501104 87.18439605 119.67578125 93.69140625 C120.03297241 94.60864975 120.39016357 95.52589325 120.75817871 96.47093201 C121.53254703 98.45824755 122.3086566 100.44488532 123.08633423 102.4309082 C124.78439702 106.76771129 126.4737193 111.10790427 128.16374207 115.44784546 C129.06272906 117.75614161 129.96216119 120.06426444 130.86201477 122.3722229 C135.87651659 135.23618942 140.84510788 148.11778655 145.8125 161 C146.73928666 163.4024454 147.66612618 165.8048704 148.59301758 168.20727539 C150.4627429 173.05347961 152.3322779 177.89975718 154.20166016 182.74609375 C158.34237052 193.48032066 162.48555683 204.21359188 166.62857056 214.94692993 C168.00075002 218.50194313 169.37282872 222.0569952 170.74487305 225.61206055 C174.88792954 236.34694377 179.0313378 247.08169066 183.17633057 257.81582642 C192.87777797 282.93938513 202.56888837 308.06683023 212.23205566 333.20513916 C221.06671494 356.18687899 229.93170178 379.15687323 238.80101013 402.1252594 C242.09617802 410.65865159 245.39022343 419.1924764 248.68359375 427.7265625 C259.78252886 456.48690117 270.88686163 485.24514642 282 514 C284.60614903 512.69692548 284.69194292 511.71024909 285.71386719 509.01757812 C286.04401825 508.15823166 286.37416931 507.29888519 286.71432495 506.41349792 C287.07156647 505.46235611 287.42880798 504.51121429 287.796875 503.53125 C288.17772247 502.53454788 288.55856995 501.53784576 288.95095825 500.51094055 C290.22364123 497.17633748 291.48661357 493.83813515 292.75 490.5 C293.64779822 488.14381859 294.54641295 485.78794814 295.44580078 483.43237305 C296.85786495 479.73345488 298.26961197 476.03442166 299.6781311 472.33415222 C304.25093566 460.32243905 308.87611577 448.33114883 313.51037598 436.34301758 C315.35334057 431.5749505 317.19435328 426.80613071 319.03540039 422.037323 C320.42934512 418.42666809 321.82353582 414.81610823 323.21777344 411.20556641 C325.98179961 404.04746287 328.74494865 396.88902099 331.5078125 389.73046875 C332.18783325 387.96854187 332.18783325 387.96854187 332.8815918 386.17102051 C334.25440946 382.61401943 335.62720847 379.05701116 337 375.5 C342.05796589 362.39441134 347.11595855 349.28883341 352.17633057 336.18417358 C361.46546344 312.12837392 370.74751989 288.06992411 380 264 C389.24784957 239.94212205 398.52526599 215.89571678 407.81007385 191.8520813 C411.07956112 183.38513564 414.34690181 174.91736377 417.61328125 166.44921875 C419.01029374 162.82781397 420.4073508 159.20642639 421.80444336 155.58505249 C422.72116687 153.20879268 423.6378342 150.8325112 424.55444336 148.45620728 C429.55774224 135.48629532 434.57063995 122.52020829 439.60546875 109.5625 C440.2775663 107.83217529 440.2775663 107.83217529 440.96324158 106.06689453 C443.09457959 100.5801744 445.22769836 95.0941591 447.36401367 89.609375 C448.11513136 87.67710656 448.86619271 85.74481621 449.6171875 83.8125 C449.96287277 82.92699463 450.30855804 82.04148926 450.66471863 81.12915039 C452.27443471 77.65593493 452.27443471 77.65593493 453 74 C340.8 74 228.6 74 113 74 Z " fill="#000000" transform="translate(56,94)"/>
</svg>
